<?xml version="1.0" encoding="utf-8"?>
<!-- Generator: Adobe Illustrator 21.0.0, SVG Export Plug-In . SVG Version: 6.00 Build 0)  -->
<svg version="1.1" id="Calque_1" xmlns="http://www.w3.org/2000/svg" xmlns:xlink="http://www.w3.org/1999/xlink" x="0px" y="0px"
	 viewBox="0 0 1000 1000" style="enable-background:new 0 0 1000 1000;" xml:space="preserve">
<style type="text/css">
	.st0{fill:#BE1622;}
	.st1{fill:#FFFFFF;}
</style>
<path class="st0" d="M39,495.9C38.3,247.2,245.3,42.2,498.1,41.1C752.5,39.9,959.4,246.3,960,501.8
	c0.7,250.3-207.9,457.2-460.7,457.2C242.9,959,39.6,754.5,39,495.9z M402.3,498.4c0,41.3-0.2,82.6,0.1,123.8
	c0.1,18.5,10.1,24.5,25.8,15.6c71.2-40.6,142.3-81.4,213.3-122.3c17.1-9.8,17.1-21.1,0.1-30.9c-70.6-40.6-141.2-81.1-211.9-121.5
	c-17.6-10-27.2-4.3-27.3,16.1C402.1,419,402.3,458.7,402.3,498.4z"/>
<path class="st1" d="M402.3,498.4c0-39.7-0.1-79.5,0-119.2c0.1-20.4,9.7-26.2,27.3-16.1c70.7,40.4,141.4,80.9,211.9,121.5
	c17,9.8,17,21.1-0.1,30.9c-71,40.9-142.1,81.7-213.3,122.3c-15.7,9-25.6,3-25.8-15.6C402.1,580.9,402.3,539.6,402.3,498.4z"/>
</svg>
